<svg xmlns="http://www.w3.org/2000/svg" aria-hidden="true" style="position:absolute;width:0;height:0;overflow:hidden">
  <defs>
    <symbol id="icon-desc-l" viewBox="0 0 20 32">
      <path fill="#fff" d="M0 0h.451v4.958H0V0z" style="fill:var(--color1, #fff)"/>
      <path fill="#fff" d="M0 0h19.831v.451H0V0zm0 32h.451v-4.958H0V32z" style="fill:var(--color1, #fff)"/>
      <path fill="#fff" d="M0 32h19.831v-.451H0V32z" style="fill:var(--color1, #fff)"/>
    </symbol>
    <symbol id="icon-planshet-l" viewBox="0 0 22 32">
      <path fill="#fff" d="M0 0h.509v7.04H0V0z" style="fill:var(--color1, #fff)"/>
      <path fill="#fff" d="M0 0h22.4v.64H0V0zm0 32h.509v-7.04H0V32z" style="fill:var(--color1, #fff)"/>
      <path fill="#fff" d="M0 32h22.4v-.64H0V32z" style="fill:var(--color1, #fff)"/>
    </symbol>
    <symbol id="icon-planshet-r" viewBox="0 0 22 32">
      <path fill="#fff" d="M22.4 0h-.509v7.04h.509V0z" style="fill:var(--color1, #fff)"/>
      <path fill="#fff" d="M22.4 0H0v.64h22.4V0zm0 32h-.509v-7.04h.509V32z" style="fill:var(--color1, #fff)"/>
      <path fill="#fff" d="M22.4 32H0v-.64h22.4V32z" style="fill:var(--color1, #fff)"/>
    </symbol>
    <symbol id="icon-desc-r" viewBox="0 0 20 32">
      <path fill="#fff" d="M19.831 0h-.451v4.958h.451V0z" style="fill:var(--color1, #fff)"/>
      <path fill="#fff" d="M19.831 0H0v.451h19.831V0zm0 32h-.451v-4.958h.451V32z" style="fill:var(--color1, #fff)"/>
      <path fill="#fff" d="M19.831 32H0v-.451h19.831V32z" style="fill:var(--color1, #fff)"/>
    </symbol>
    <symbol id="icon-mob-l" viewBox="0 0 25 32">
      <path fill="#fff" d="M0 0h.576v6.641H0V0z" style="fill:var(--color1, #fff)"/>
      <path fill="#fff" d="M0 0h25.358v.604H0V0zm0 32h.576v-6.642H0V32z" style="fill:var(--color1, #fff)"/>
      <path fill="#fff" d="M0 32h25.358v-.604H0V32z" style="fill:var(--color1, #fff)"/>
    </symbol>
    <symbol id="icon-mob-r" viewBox="0 0 25 32">
      <path fill="#fff" d="M25.358 0h-.576v6.641h.576V0z" style="fill:var(--color1, #fff)"/>
      <path fill="#fff" d="M25.358 0H0v.604h25.358V0zm0 32h-.576v-6.642h.576V32z" style="fill:var(--color1, #fff)"/>
      <path fill="#fff" d="M25.358 32H0v-.604h25.358V32z" style="fill:var(--color1, #fff)"/>
    </symbol>
  </defs>
</svg>
